<svg xmlns="http://www.w3.org/2000/svg" width="117.111" height="117.111" viewBox="0 0 117.111 117.111">
  <path id="cain" d="M39.043,97.6s-9.766,9.766-14.639,9.766A14.623,14.623,0,0,1,9.766,92.726c0-4.873,9.766-14.639,9.766-14.639L38.608,59.011a23.778,23.778,0,0,0-19.076,4.414L4.893,78.064a24.4,24.4,0,0,0,34.151,34.174L53.682,97.6A23.879,23.879,0,0,0,58.555,82.96a23.372,23.372,0,0,0-.459-4.437L39.043,97.6ZM92.706,0A24.2,24.2,0,0,0,78.067,4.873L63.428,19.512a23.879,23.879,0,0,0-4.873,14.639,23.373,23.373,0,0,0,.459,4.437L78.09,19.512s9.766-9.766,14.639-9.766a14.623,14.623,0,0,1,14.639,14.639c0,4.873-9.766,14.639-9.766,14.639L78.523,58.1a23.84,23.84,0,0,0,4.437.459A23.53,23.53,0,0,0,97.6,53.682l14.639-14.639A24.409,24.409,0,0,0,92.706,0ZM34.151,75.641a7.295,7.295,0,0,0,13.861,3.2L78.845,48.035A7.295,7.295,0,1,0,69.1,38.292L38.266,69.076a7.36,7.36,0,0,0-4.118,6.565Z" fill="#d0bbff"/>
</svg>
